<svg width="75" height="75" viewBox="0 0 75 75" fill="none" xmlns="http://www.w3.org/2000/svg">
<rect width="75" height="75" rx="12" fill="white"/>
<path d="M25.3959 62.7485C22.4076 57.8668 19.22 49.0656 23.8531 38.3027C26.271 32.6817 31.0154 28.3961 35.0624 26.0525C32.6159 23.0669 35.4723 19.5215 36.8561 18.1126C37.0284 17.9627 36.8418 17.6915 36.6544 17.7899C30.8601 20.8143 24.8691 27.685 22.2196 33.1617C15.5362 46.9664 21.5384 58.1991 24.9389 62.964C25.4279 63.6946 26.0731 63.8782 25.3959 62.7485Z" fill="#00A291"/>
<path d="M25.4694 67.8719C14.9691 58.3844 13.8519 41.6607 19.9424 29.1808C23.3884 22.1269 29.3749 15.8367 36.3525 12.2973C37.5854 11.6975 38.8609 11.1897 40.1686 10.7779C39.0694 8.69394 41.8594 6.22212 46.1264 5.37059C46.2004 5.27203 46.0646 5.16189 45.9402 5.11274C44.0928 4.37483 35.5153 7.54688 33.8692 6.33122C27.2955 10.6468 21.4281 16.3993 17.7247 23.5713C9.68903 39.1241 12.6996 58.0237 25.2433 68.5212C26.6094 69.665 26.8928 69.051 25.4694 67.8719Z" fill="#00A291"/>
<path d="M14.4814 23.0966C14.6463 23.0043 14.7919 22.97 14.8901 23.1508C11.6378 28.7534 9.90113 35.2639 10.137 42.2292C10.3498 48.9011 12.4339 55.3788 16.1516 60.923C16.7885 61.886 16.4891 62.3004 15.4658 60.9609C10.2889 54.2429 7.24027 48.1292 7.00744 37.942C6.94885 35.3051 7.24196 32.6537 7.69495 30.3504C9.91191 31.484 12.8227 24.1494 14.4827 23.0966" fill="#00A291"/>
<path d="M47.5516 70.4892C33.3425 70.4892 22.4252 59.3995 26.2965 44.5477C29.3592 32.7978 41.3366 23.4697 53.7678 25.1621C61.0425 26.1525 67.4967 32.5513 68.5084 40.1396L62.8737 39.1278C60.9202 28.5043 51.8143 22.4337 41.6967 30.5278C31.579 38.6219 27.6812 55.3016 37.1437 64.4219C44.367 71.3839 54.8872 69.1037 59.4025 59.869L64.9673 60.3749C60.9202 67.4572 54.0049 70.4892 47.5516 70.4892Z" fill="#1B458F"/>
</svg>
